<svg class="main-svg" xmlns="http://www.w3.org/2000/svg" xmlns:xlink="http://www.w3.org/1999/xlink" width="700" height="500" style="" viewBox="0 0 700 500"><rect x="0" y="0" width="700" height="500" style="fill: rgb(255, 255, 255); fill-opacity: 1;"/><defs id="defs-98d2c0"><g class="clips"><clipPath id="clip98d2c0xyplot" class="plotclip"><rect width="580" height="310"/></clipPath><clipPath class="axesclip" id="clip98d2c0x"><rect x="100" y="0" width="580" height="500"/></clipPath><clipPath class="axesclip" id="clip98d2c0y"><rect x="0" y="110" width="700" height="310"/></clipPath><clipPath class="axesclip" id="clip98d2c0xy"><rect x="100" y="110" width="580" height="310"/></clipPath></g><g class="gradients"/></defs><g class="bglayer"/><g class="layer-below"><g class="imagelayer"/><g class="shapelayer"/></g><g class="cartesianlayer"><g class="subplot xy"><g class="layer-subplot"><g class="shapelayer"/><g class="imagelayer"/></g><g class="gridlayer"><g class="x"><path class="xgrid crisp" transform="translate(172.32999999999998,0)" d="M0,110v310" style="stroke: rgb(255, 255, 255); stroke-opacity: 1; stroke-width: 1px;"/><path class="xgrid crisp" transform="translate(251.48,0)" d="M0,110v310" style="stroke: rgb(255, 255, 255); stroke-opacity: 1; stroke-width: 1px;"/><path class="xgrid crisp" transform="translate(330.63,0)" d="M0,110v310" style="stroke: rgb(255, 255, 255); stroke-opacity: 1; stroke-width: 1px;"/><path class="xgrid crisp" transform="translate(409.79,0)" d="M0,110v310" style="stroke: rgb(255, 255, 255); stroke-opacity: 1; stroke-width: 1px;"/><path class="xgrid crisp" transform="translate(488.94,0)" d="M0,110v310" style="stroke: rgb(255, 255, 255); stroke-opacity: 1; stroke-width: 1px;"/><path class="xgrid crisp" transform="translate(568.1,0)" d="M0,110v310" style="stroke: rgb(255, 255, 255); stroke-opacity: 1; stroke-width: 1px;"/><path class="xgrid crisp" transform="translate(647.25,0)" d="M0,110v310" style="stroke: rgb(255, 255, 255); stroke-opacity: 1; stroke-width: 1px;"/></g><g class="y"><path class="ygrid crisp" transform="translate(0,355.5)" d="M100,0h580" style="stroke: rgb(255, 255, 255); stroke-opacity: 1; stroke-width: 1px;"/><path class="ygrid crisp" transform="translate(0,310.25)" d="M100,0h580" style="stroke: rgb(255, 255, 255); stroke-opacity: 1; stroke-width: 1px;"/><path class="ygrid crisp" transform="translate(0,265)" d="M100,0h580" style="stroke: rgb(255, 255, 255); stroke-opacity: 1; stroke-width: 1px;"/><path class="ygrid crisp" transform="translate(0,219.75)" d="M100,0h580" style="stroke: rgb(255, 255, 255); stroke-opacity: 1; stroke-width: 1px;"/><path class="ygrid crisp" transform="translate(0,174.5)" d="M100,0h580" style="stroke: rgb(255, 255, 255); stroke-opacity: 1; stroke-width: 1px;"/><path class="ygrid crisp" transform="translate(0,129.25)" d="M100,0h580" style="stroke: rgb(255, 255, 255); stroke-opacity: 1; stroke-width: 1px;"/></g></g><g class="zerolinelayer"><path class="yzl zl crisp" transform="translate(0,400.75)" d="M100,0h580" style="stroke: rgb(255, 255, 255); stroke-opacity: 1; stroke-width: 2px;"/></g><path class="xlines-below"/><path class="ylines-below"/><g class="overlines-below"/><g class="xaxislayer-below"/><g class="yaxislayer-below"/><g class="overaxes-below"/><g class="plot" transform="translate(100, 110)" clip-path="url('#clip98d2c0xyplot')"><g class="scatterlayer mlayer"><g class="trace scatter trace54ddfc" style="stroke-miterlimit: 2; opacity: 1;"><g class="fills"/><g class="errorbars"/><g class="lines"><path class="js-line" d="M32.75,200.25L72.33,109.75L111.9,200.25L151.48,109.75L191.06,290.75L230.63,109.75L270.21,109.75L309.79,109.75L349.37,200.25L388.94,19.25L428.52,290.75L468.1,290.75L507.67,109.75L547.25,19.25" style="vector-effect: non-scaling-stroke; fill: none; stroke: rgb(67, 67, 67); stroke-opacity: 1; stroke-width: 3px; opacity: 1;"/></g><g class="points"><path class="point" transform="translate(32.75,200.25)" d="M3,0A3,3 0 1,1 0,-3A3,3 0 0,1 3,0Z" style="opacity: 1; stroke-width: 0px; fill: rgb(67, 67, 67); fill-opacity: 1;"/><path class="point" transform="translate(72.33,109.75)" d="M3,0A3,3 0 1,1 0,-3A3,3 0 0,1 3,0Z" style="opacity: 1; stroke-width: 0px; fill: rgb(67, 67, 67); fill-opacity: 1;"/><path class="point" transform="translate(111.9,200.25)" d="M3,0A3,3 0 1,1 0,-3A3,3 0 0,1 3,0Z" style="opacity: 1; stroke-width: 0px; fill: rgb(67, 67, 67); fill-opacity: 1;"/><path class="point" transform="translate(151.48,109.75)" d="M3,0A3,3 0 1,1 0,-3A3,3 0 0,1 3,0Z" style="opacity: 1; stroke-width: 0px; fill: rgb(67, 67, 67); fill-opacity: 1;"/><path class="point" transform="translate(191.06,290.75)" d="M3,0A3,3 0 1,1 0,-3A3,3 0 0,1 3,0Z" style="opacity: 1; stroke-width: 0px; fill: rgb(67, 67, 67); fill-opacity: 1;"/><path class="point" transform="translate(230.63,109.75)" d="M3,0A3,3 0 1,1 0,-3A3,3 0 0,1 3,0Z" style="opacity: 1; stroke-width: 0px; fill: rgb(67, 67, 67); fill-opacity: 1;"/><path class="point" transform="translate(270.21,109.75)" d="M3,0A3,3 0 1,1 0,-3A3,3 0 0,1 3,0Z" style="opacity: 1; stroke-width: 0px; fill: rgb(67, 67, 67); fill-opacity: 1;"/><path class="point" transform="translate(309.79,109.75)" d="M3,0A3,3 0 1,1 0,-3A3,3 0 0,1 3,0Z" style="opacity: 1; stroke-width: 0px; fill: rgb(67, 67, 67); fill-opacity: 1;"/><path class="point" transform="translate(349.37,200.25)" d="M3,0A3,3 0 1,1 0,-3A3,3 0 0,1 3,0Z" style="opacity: 1; stroke-width: 0px; fill: rgb(67, 67, 67); fill-opacity: 1;"/><path class="point" transform="translate(388.94,19.25)" d="M3,0A3,3 0 1,1 0,-3A3,3 0 0,1 3,0Z" style="opacity: 1; stroke-width: 0px; fill: rgb(67, 67, 67); fill-opacity: 1;"/><path class="point" transform="translate(428.52,290.75)" d="M3,0A3,3 0 1,1 0,-3A3,3 0 0,1 3,0Z" style="opacity: 1; stroke-width: 0px; fill: rgb(67, 67, 67); fill-opacity: 1;"/><path class="point" transform="translate(468.1,290.75)" d="M3,0A3,3 0 1,1 0,-3A3,3 0 0,1 3,0Z" style="opacity: 1; stroke-width: 0px; fill: rgb(67, 67, 67); fill-opacity: 1;"/><path class="point" transform="translate(507.67,109.75)" d="M3,0A3,3 0 1,1 0,-3A3,3 0 0,1 3,0Z" style="opacity: 1; stroke-width: 0px; fill: rgb(67, 67, 67); fill-opacity: 1;"/><path class="point" transform="translate(547.25,19.25)" d="M3,0A3,3 0 1,1 0,-3A3,3 0 0,1 3,0Z" style="opacity: 1; stroke-width: 0px; fill: rgb(67, 67, 67); fill-opacity: 1;"/></g><g class="text"/></g></g></g><g class="overplot"/><path class="xlines-above crisp" d="M99,421H680" style="fill: none; stroke-width: 2px; stroke: rgb(67, 67, 67); stroke-opacity: 1;"/><path class="ylines-above crisp" d="M99.5,110V420" style="fill: none; stroke-width: 1px; stroke: rgb(255, 255, 255); stroke-opacity: 1;"/><g class="overlines-above"/><g class="xaxislayer-above"><path class="xtick ticks crisp" d="M0,422v5" transform="translate(172.32999999999998,0)" style="stroke: rgb(68, 68, 68); stroke-opacity: 1; stroke-width: 1px;"/><path class="xtick ticks crisp" d="M0,422v5" transform="translate(251.48,0)" style="stroke: rgb(68, 68, 68); stroke-opacity: 1; stroke-width: 1px;"/><path class="xtick ticks crisp" d="M0,422v5" transform="translate(330.63,0)" style="stroke: rgb(68, 68, 68); stroke-opacity: 1; stroke-width: 1px;"/><path class="xtick ticks crisp" d="M0,422v5" transform="translate(409.79,0)" style="stroke: rgb(68, 68, 68); stroke-opacity: 1; stroke-width: 1px;"/><path class="xtick ticks crisp" d="M0,422v5" transform="translate(488.94,0)" style="stroke: rgb(68, 68, 68); stroke-opacity: 1; stroke-width: 1px;"/><path class="xtick ticks crisp" d="M0,422v5" transform="translate(568.1,0)" style="stroke: rgb(68, 68, 68); stroke-opacity: 1; stroke-width: 1px;"/><path class="xtick ticks crisp" d="M0,422v5" transform="translate(647.25,0)" style="stroke: rgb(68, 68, 68); stroke-opacity: 1; stroke-width: 1px;"/><g class="xtick"><text text-anchor="middle" x="0" y="441.4" transform="translate(172.32999999999998,0)" style="font-family: Arial; font-size: 12px; fill: rgb(82, 82, 82); fill-opacity: 1; white-space: pre;"><tspan class="line" dy="0em" x="0" y="441.4">Aug 20</tspan><tspan class="line" dy="1.3em" x="0" y="441.4">2020</tspan></text></g><g class="xtick"><text text-anchor="middle" x="0" y="441.4" transform="translate(251.48,0)" style="font-family: Arial; font-size: 12px; fill: rgb(82, 82, 82); fill-opacity: 1; white-space: pre;">Aug 22</text></g><g class="xtick"><text text-anchor="middle" x="0" y="441.4" transform="translate(330.63,0)" style="font-family: Arial; font-size: 12px; fill: rgb(82, 82, 82); fill-opacity: 1; white-space: pre;">Aug 24</text></g><g class="xtick"><text text-anchor="middle" x="0" y="441.4" transform="translate(409.79,0)" style="font-family: Arial; font-size: 12px; fill: rgb(82, 82, 82); fill-opacity: 1; white-space: pre;">Aug 26</text></g><g class="xtick"><text text-anchor="middle" x="0" y="441.4" transform="translate(488.94,0)" style="font-family: Arial; font-size: 12px; fill: rgb(82, 82, 82); fill-opacity: 1; white-space: pre;">Aug 28</text></g><g class="xtick"><text text-anchor="middle" x="0" y="441.4" transform="translate(568.1,0)" style="font-family: Arial; font-size: 12px; fill: rgb(82, 82, 82); fill-opacity: 1; white-space: pre;">Aug 30</text></g><g class="xtick"><text text-anchor="middle" x="0" y="441.4" transform="translate(647.25,0)" style="font-family: Arial; font-size: 12px; fill: rgb(82, 82, 82); fill-opacity: 1; white-space: pre;">Sep 1</text></g></g><g class="yaxislayer-above"><g class="ytick"><text text-anchor="end" x="96.6" y="4.199999999999999" transform="translate(0,400.75)" style="font-family: 'Open Sans', verdana, arial, sans-serif; font-size: 12px; fill: rgb(42, 63, 95); fill-opacity: 1; white-space: pre;">0</text></g><g class="ytick"><text text-anchor="end" x="96.6" y="4.199999999999999" transform="translate(0,355.5)" style="font-family: 'Open Sans', verdana, arial, sans-serif; font-size: 12px; fill: rgb(42, 63, 95); fill-opacity: 1; white-space: pre;">0.5</text></g><g class="ytick"><text text-anchor="end" x="96.6" y="4.199999999999999" transform="translate(0,310.25)" style="font-family: 'Open Sans', verdana, arial, sans-serif; font-size: 12px; fill: rgb(42, 63, 95); fill-opacity: 1; white-space: pre;">1</text></g><g class="ytick"><text text-anchor="end" x="96.6" y="4.199999999999999" transform="translate(0,265)" style="font-family: 'Open Sans', verdana, arial, sans-serif; font-size: 12px; fill: rgb(42, 63, 95); fill-opacity: 1; white-space: pre;">1.5</text></g><g class="ytick"><text text-anchor="end" x="96.6" y="4.199999999999999" transform="translate(0,219.75)" style="font-family: 'Open Sans', verdana, arial, sans-serif; font-size: 12px; fill: rgb(42, 63, 95); fill-opacity: 1; white-space: pre;">2</text></g><g class="ytick"><text text-anchor="end" x="96.6" y="4.199999999999999" transform="translate(0,174.5)" style="font-family: 'Open Sans', verdana, arial, sans-serif; font-size: 12px; fill: rgb(42, 63, 95); fill-opacity: 1; white-space: pre;">2.5</text></g><g class="ytick"><text text-anchor="end" x="96.6" y="4.199999999999999" transform="translate(0,129.25)" style="font-family: 'Open Sans', verdana, arial, sans-serif; font-size: 12px; fill: rgb(42, 63, 95); fill-opacity: 1; white-space: pre;">3</text></g></g><g class="overaxes-above"/></g></g><g class="polarlayer"/><g class="ternarylayer"/><g class="geolayer"/><g class="funnelarealayer"/><g class="pielayer"/><g class="treemaplayer"/><g class="sunburstlayer"/><g class="glimages"/><defs id="topdefs-98d2c0"><g class="clips"/></defs><g class="layer-above"><g class="imagelayer"/><g class="shapelayer"/></g><g class="infolayer"><g class="g-gtitle"/><g class="g-xtitle"/><g class="g-ytitle"/><g class="annotation" data-index="0" style="opacity: 1;"><g class="annotation-text-g" transform="rotate(0,246,75.99999999999997)"><g class="cursor-pointer" transform="translate(100, 57)"><rect class="bg" x="0.5" y="0.5" width="291" height="36" style="stroke-width: 1px; stroke: rgb(0, 0, 0); stroke-opacity: 0; fill: rgb(0, 0, 0); fill-opacity: 0;"/><text class="annotation-text" text-anchor="middle" x="146.421875" y="29" style="font-family: Arial; font-size: 30px; fill: rgb(37, 37, 37); fill-opacity: 1; white-space: pre;">Aantal keysets/datum</text></g></g></g><g class="annotation" data-index="1" style="opacity: 1;"><g class="annotation-text-g" transform="rotate(0,390,460)"><g class="cursor-pointer" transform="translate(264, 451)"><rect class="bg" x="0.5" y="0.5" width="252" height="17" style="stroke-width: 1px; stroke: rgb(0, 0, 0); stroke-opacity: 0; fill: rgb(0, 0, 0); fill-opacity: 0;"/><text class="annotation-text" text-anchor="middle" x="126.734375" y="13" style="font-family: Arial; font-size: 12px; fill: rgb(150, 150, 150); fill-opacity: 1; white-space: pre;">Bron: CoronaMelder backend API (datum hier)</text></g></g></g></g></svg>